<?xml version="1.0" standalone="no"?>
<!DOCTYPE svg PUBLIC "-//W3C//DTD SVG 20010904//EN"
 "http://www.w3.org/TR/2001/REC-SVG-20010904/DTD/svg10.dtd">
<svg version="1.0" xmlns="http://www.w3.org/2000/svg"
 width="400.000000pt" height="450.000000pt" viewBox="0 0 400.000000 450.000000"
 preserveAspectRatio="xMidYMid meet">
<metadata>
Created by potrace 1.14, written by Peter Selinger 2001-2017
</metadata>
<g transform="translate(0.000000,450.000000) scale(0.100000,-0.100000)"
fill="#000000" stroke="none">
<path d="M1650 4284 c-55 -88 -120 -294 -162 -519 -17 -94 -22 -158 -23 -295
0 -161 2 -178 22 -216 12 -23 33 -48 46 -57 59 -38 265 -74 336 -58 23 5 43 5
46 1 3 -4 -8 -64 -24 -132 -32 -131 -61 -322 -86 -557 -8 -79 -20 -150 -26
-157 -15 -19 -314 -167 -379 -189 -46 -15 -54 -16 -67 -2 -8 8 -31 72 -52 143
-72 249 -135 344 -229 344 -36 0 -54 -20 -85 -90 -40 -90 -61 -203 -62 -330 0
-107 2 -118 27 -160 71 -121 330 -319 418 -320 61 0 135 83 219 247 62 119
177 221 212 186 10 -10 49 -244 49 -294 0 -22 -16 -41 -77 -96 -201 -177 -199
-192 17 -104 54 23 107 41 117 41 33 -1 -29 -45 -108 -77 -286 -118 -403 -168
-703 -303 -527 -236 -513 -231 -688 -239 -81 -4 -150 -10 -154 -14 -15 -15 18
-87 59 -129 52 -54 119 -88 190 -95 103 -11 414 82 587 174 135 72 314 187
435 278 121 91 211 139 297 157 59 12 85 8 94 -17 14 -35 -154 -337 -254 -455
-30 -36 -138 -155 -241 -264 -355 -380 -428 -462 -418 -472 29 -29 537 314
771 522 150 133 289 351 362 566 19 56 46 120 61 142 54 77 167 133 497 245
195 67 284 84 621 121 380 41 441 50 461 65 16 11 13 16 -32 49 -86 63 -148
89 -229 94 -171 11 -519 -59 -965 -193 -205 -61 -283 -77 -318 -64 -30 12 -79
115 -65 138 5 9 34 33 65 53 l55 37 59 -58 c71 -69 109 -95 127 -88 8 3 23 36
34 74 12 37 29 95 39 127 40 132 116 208 365 367 220 141 261 181 245 244 -23
93 -218 198 -399 214 l-89 8 -70 76 c-107 118 -278 221 -311 188 -7 -7 2 -44
29 -118 l39 -108 -2 -300 -2 -300 -117 -115 -117 -115 -9 35 c-4 19 -9 170
-10 335 l-3 300 48 140 c90 262 178 411 343 581 67 69 114 101 205 140 86 35
118 60 136 102 43 103 -113 172 -362 159 -130 -7 -220 -25 -333 -66 -46 -17
-92 -31 -102 -31 -30 0 -47 37 -60 125 -23 160 -49 229 -117 312 -42 51 -119
113 -140 113 -7 0 -27 -21 -43 -46z"/>
<path d="M2680 1263 c-28 -10 -50 -36 -50 -58 0 -37 57 -110 138 -176 117 -96
229 -207 280 -277 25 -35 66 -110 91 -168 95 -212 173 -273 273 -211 68 41
109 113 134 237 14 71 15 94 5 149 -29 158 -135 282 -313 369 -198 97 -478
164 -558 135z"/>
</g>
</svg>
